<?xml version="1.0" standalone="no"?><!DOCTYPE svg PUBLIC "-//W3C//DTD SVG 1.1//EN" "http://www.w3.org/Graphics/SVG/1.1/DTD/svg11.dtd"><svg t="1524040807200" class="icon" style="" viewBox="0 0 1237 1024" version="1.1" xmlns="http://www.w3.org/2000/svg" p-id="20429" xmlns:xlink="http://www.w3.org/1999/xlink" width="241.6015625" height="200"><defs><style type="text/css"></style></defs><path d="M893.866667 407.808H810.666667a216.405333 216.405333 0 0 0-113.066667-148.352 149.546667 149.546667 0 0 0 49.877333-111.445333C747.477333 66.389333 682.368 0 602.24 0c-80.042667 0-145.194667 66.389333-145.194667 147.968 0 42.794667 18.389333 83.498667 49.834667 111.445333a216.448 216.448 0 0 0-113.066667 148.352H308.736C138.453333 407.765333 0 546.005333 0 715.946667S138.496 1024 308.693333 1024H893.866667c170.24 0 308.778667-138.197333 308.778666-308.096s-138.496-308.096-308.778666-308.096z m-291.626667-348.757333c47.786667 0 86.656 39.808 86.656 88.746666 0 48.896-38.826667 88.704-86.613333 88.704-47.786667 0-86.656-39.808-86.656-88.746666 0-48.896 38.826667-88.704 86.613333-88.704z m0 236.928c69.717333 0 128.810667 47.189333 148.266667 111.786666h-296.533334c19.541333-64.64 78.634667-111.786667 148.266667-111.786666z m0 533.461333c76.586667 0 140.202667 57.002667 152.746667 131.413333h-305.450667c12.586667-74.453333 76.202667-131.413333 152.746667-131.413333z m-86.613333-148.224c0-48.896 38.826667-88.704 86.613333-88.704 47.786667 0 86.656 39.808 86.656 88.746667 0 48.896-38.826667 88.704-86.613333 88.704-47.786667 0-86.656-39.808-86.656-88.746667z m378.197333 279.68h-80a216.874667 216.874667 0 0 0-116.181333-167.978667 149.504 149.504 0 0 0 49.834666-111.445333c0-81.621333-65.109333-148.010667-145.237333-148.010667-80.042667 0-145.194667 66.389333-145.194667 148.010667 0 42.752 18.389333 83.456 49.834667 111.445333a216.874667 216.874667 0 0 0-116.181333 167.978667H308.693333c-135.381333 0-245.546667-109.909333-245.546666-244.992s110.165333-244.992 245.546666-244.992H893.866667c135.466667 0 245.632 109.909333 245.632 244.992s-110.165333 244.992-245.632 244.992z" p-id="20430"></path></svg>