<?xml version="1.0" standalone="no"?><!DOCTYPE svg PUBLIC "-//W3C//DTD SVG 1.1//EN" "http://www.w3.org/Graphics/SVG/1.1/DTD/svg11.dtd"><svg t="1524032617228" class="icon" style="" viewBox="0 0 1024 1024" version="1.1" xmlns="http://www.w3.org/2000/svg" p-id="11744" xmlns:xlink="http://www.w3.org/1999/xlink" width="200" height="200"><defs><style type="text/css"></style></defs><path d="M512.556671 129.744026c197.421548 74.05659 317.217127 310.776893 214.592906 502.575854L476.712573 380.614735l95.599384-95.966135-59.789263-59.522044c-32.990033 32.322485-85.420485 39.213813-120.779911 24.963475l-190.347544 190.53082 107.797713 107.430362 71.853683-71.586864 250.353061 251.287427c-122.514535 67.298172-292.337595 46.089551-417.672818-84.151745l-60.690252 60.523765c18.188668 25.213905 33.423739 48.058217 52.363298 67.214229-1.65188 1.985654-6.85835 6.257757-6.958282 6.374678-3.187439-0.517649-6.958282-1.751812-10.312408-1.751812-32.289108 0-58.370825 28.116737-58.370825 60.439822 0 32.27212 26.332147 58.604066 58.621055 58.604066 32.306096 0 59.939161-26.565788 59.939161-58.870886 0-3.771443-0.850823-7.209112-1.501982-10.763702l9.328076-9.160789c144.091506 97.217886 302.016433 109.332473 471.938825 7.608841l70.168226 70.452034 96.049678-94.781538-70.61892-71.3864C1026.345921 422.565692 756.117936 122.435381 512.556671 129.744026L512.556671 129.744026 512.556671 129.744026z" p-id="11745"></path></svg>