<?xml version="1.0" standalone="no"?><!DOCTYPE svg PUBLIC "-//W3C//DTD SVG 1.1//EN" "http://www.w3.org/Graphics/SVG/1.1/DTD/svg11.dtd"><svg t="1524035142401" class="icon" style="" viewBox="0 0 1024 1024" version="1.1" xmlns="http://www.w3.org/2000/svg" p-id="13678" xmlns:xlink="http://www.w3.org/1999/xlink" width="200" height="200"><defs><style type="text/css"></style></defs><path d="M756.313 719.143c53.302 20.002 85.647 83.918 57.943 135.698l-67.616-67.956 25.807-25.915-16.142-16.072c-8.902 8.732-23.064 10.588-32.608 6.741L672.3 803.081l29.108 29.013 19.396-19.328L788.4 880.61c-33.076 18.17-78.93 12.44-112.769-22.718l-16.385 16.34c4.904 6.805 9.017 12.974 14.13 18.146-0.442 0.535-1.853 1.69-1.876 1.719-0.863-0.134-1.881-0.471-2.784-0.471-8.718 0-15.76 7.59-15.76 16.317 0 8.718 7.115 15.825 15.83 15.825 8.722 0 16.183-7.176 16.183-15.894 0-1.017-0.229-1.946-0.408-2.91l2.521-2.475c38.907 26.252 81.542 29.521 127.426 2.062l18.943 19.019 25.934-25.589-19.066-19.28c54.719-82.494-18.245-163.529-84.006-161.558z" p-id="13679"></path><path d="M537.5 535.5c-59.991 0-116.392-23.362-158.813-65.782s-65.782-98.821-65.782-158.813 23.362-116.392 65.782-158.813S477.509 86.311 537.5 86.311s116.392 23.362 158.813 65.782c42.42 42.42 65.782 98.821 65.782 158.813s-23.362 116.392-65.782 158.813C653.892 512.138 597.491 535.5 537.5 535.5z m0-393.189c-92.963 0-168.595 75.631-168.595 168.595S444.537 479.5 537.5 479.5c92.964 0 168.595-75.631 168.595-168.595S630.464 142.311 537.5 142.311z" p-id="13680"></path><path d="M160.751 940.592c-15.464 0-28-12.536-28-28 0-52.853 10.357-104.139 30.785-152.435 19.725-46.635 47.956-88.511 83.91-124.465 35.955-35.955 77.83-64.187 124.464-83.911 48.296-20.428 99.582-30.785 152.435-30.785 100.916 0 196.747 38.288 269.841 107.813 11.205 10.657 11.649 28.381 0.991 39.585-10.658 11.207-28.381 11.648-39.585 0.991-62.638-59.578-144.763-92.389-231.247-92.389-185.047 0-335.594 150.548-335.594 335.596 0 15.464-12.536 28-28 28z" p-id="13681"></path></svg>