<?xml version="1.0" standalone="no"?><!DOCTYPE svg PUBLIC "-//W3C//DTD SVG 1.1//EN" "http://www.w3.org/Graphics/SVG/1.1/DTD/svg11.dtd"><svg t="1524036310616" class="icon" style="" viewBox="0 0 1024 1024" version="1.1" xmlns="http://www.w3.org/2000/svg" p-id="17564" xmlns:xlink="http://www.w3.org/1999/xlink" width="200" height="200"><defs><style type="text/css"></style></defs><path d="M680.080 63.806h-336.158l-168.081 112.049v224.097h672.321v-224.097l-168.081-112.049zM568.027 343.928v-37.367c0-10.258-8.429-18.657-18.714-18.657h-74.63c-10.286 0-18.711 8.4-18.711 18.657v37.367h-56.027v-93.392c0-10.258 8.424-18.656 18.603-18.656h186.789c10.286 0 18.603 8.4 18.603 18.656l0.112 93.392h-56.025zM175.84 680.073h672.321v-224.098h-672.321v224.098zM399.946 530.657c0-10.259 8.424-18.657 18.603-18.657h186.789c10.286 0 18.603 8.4 18.603 18.657l0.112 93.39h-56.026v-37.365c0-10.259-8.429-18.657-18.714-18.657h-74.63c-10.286 0-18.71 8.399-18.71 18.657v37.365h-56.027v-93.39zM175.84 960.194h672.321v-224.098h-672.321v224.098zM399.946 810.778c0-10.257 8.424-18.656 18.603-18.656h186.789c10.286 0 18.603 8.401 18.603 18.656l0.112 93.392h-56.026v-37.366c0-10.258-8.429-18.656-18.714-18.656h-74.63c-10.286 0-18.71 8.399-18.71 18.656v37.366h-56.027v-93.392z" p-id="17565"></path></svg>