<?xml version="1.0" standalone="no"?><!DOCTYPE svg PUBLIC "-//W3C//DTD SVG 1.1//EN" "http://www.w3.org/Graphics/SVG/1.1/DTD/svg11.dtd"><svg t="1524037208906" class="icon" style="" viewBox="0 0 1024 1024" version="1.1" xmlns="http://www.w3.org/2000/svg" p-id="18108" xmlns:xlink="http://www.w3.org/1999/xlink" width="200" height="200"><defs><style type="text/css"></style></defs><path d="M658.944 143.36c-61.952 0-115.712 32.768-145.92 81.408-30.72-48.64-84.48-81.408-146.432-81.408h-322.56l54.784 739.328h313.856c21.504 31.232 57.856 51.712 98.816 51.712s76.8-20.48 98.816-51.712h313.856L979.456 143.36h-320.512z m214.016 653.312c0 18.944-15.36 34.304-34.304 34.304H578.56c-7.68 29.696-34.816 51.712-66.56 51.712-32.256 0-58.88-22.016-66.56-51.712H151.04L95.744 195.072h356.864c18.944 0 34.304 15.36 34.304 34.304V624.64c1.024 13.312 12.288 23.552 25.6 23.552s24.576-10.24 25.6-23.552V229.376c0-18.944 15.36-34.304 34.304-34.304h354.816l-54.272 601.6z" fill="" p-id="18109"></path></svg>